HIERARCHY
ROOT Hips
{
  OFFSET -222.896 81.8314 -207.942
  CHANNELS 6 Xposition Yposition Zposition Zrotation Xrotation Yrotation
  JOINT Spine
  {
    OFFSET 10.2832 1.67858 -0.048102
    CHANNELS 3 Zrotation Xrotation Yrotation
    JOINT Spine1
    {
      OFFSET 12.2747 3.29442 1.09098
      CHANNELS 3 Zrotation Xrotation Yrotation
      JOINT Neck
      {
        OFFSET 31.2239 8.00151 -0.587386
        CHANNELS 3 Zrotation Xrotation Yrotation
        JOINT Head
        {
          OFFSET 9.52751 0.295786 -0.907742
          CHANNELS 3 Zrotation Xrotation Yrotation
          End Site
          {
            OFFSET 16.4037 0.791643 2.7358
          }
        }
      }
      JOINT LeftShoulder
      {
        OFFSET 28.911 5.13152 2.01494
        CHANNELS 3 Zrotation Xrotation Yrotation
        JOINT LeftArm
        {
          OFFSET 1.20734 -0.998971 20.1238
          CHANNELS 3 Zrotation Xrotation Yrotation
          JOINT LeftForeArm
          {
            OFFSET 26.8049 -0.0536703 -0.155908
            CHANNELS 3 Zrotation Xrotation Yrotation
            JOINT LeftHand
            {
              OFFSET 26.6817 0 0.320147
              CHANNELS 3 Zrotation Xrotation Yrotation
              End Site
              {
                OFFSET 18.6119 0 0.382219
              }
            }
          }
        }
      }
      JOINT RightShoulder
      {
        OFFSET 28.9463 4.89009 -3.10871
        CHANNELS 3 Zrotation Xrotation Yrotation
        JOINT RightArm
        {
          OFFSET 2.83739 -1.17114 -18.7564
          CHANNELS 3 Zrotation Xrotation Yrotation
          JOINT RightForeArm
          {
            OFFSET 28.839 -0.0548439 1.22491
            CHANNELS 3 Zrotation Xrotation Yrotation
            JOINT RightHand
            {
              OFFSET 26.5114 0 -0.101894
              CHANNELS 3 Zrotation Xrotation Yrotation
              End Site
              {
                OFFSET 18.2168 0 0
              }
            }
          }
        }
      }
    }
  }
  JOINT LeftUpLeg
  {
    OFFSET -2.09119 -9.33082 -10.081
    CHANNELS 3 Zrotation Xrotation Yrotation
    JOINT LeftLeg
    {
      OFFSET 2.55951 -42.0585 -8.02213
      CHANNELS 3 Zrotation Xrotation Yrotation
      JOINT LeftFoot
      {
        OFFSET 3.16357 -42.5282 -3.95426
        CHANNELS 3 Zrotation Xrotation Yrotation
        JOINT LeftToeBase
        {
          OFFSET 0.346054 -6.02161 12.8035
          CHANNELS 3 Zrotation Xrotation Yrotation
          End Site
          {
            OFFSET 0.134235 -1.35082 5.13018
          }
        }
      }
    }
  }
  JOINT RightUpLeg
  {
    OFFSET -2.27102 -8.83155 10.7989
    CHANNELS 3 Zrotation Xrotation Yrotation
    JOINT RightLeg
    {
      OFFSET -2.56294 -42.0364 -7.94377
      CHANNELS 3 Zrotation Xrotation Yrotation
      JOINT RightFoot
      {
        OFFSET -3.0952 -42.555 -4.02241
        CHANNELS 3 Zrotation Xrotation Yrotation
        JOINT RightToeBase
        {
          OFFSET -0.0828122 -6.13587 12.8035
          CHANNELS 3 Zrotation Xrotation Yrotation
          End Site
          {
            OFFSET -0.131328 -1.35082 5.13018
          }
        }
      }
    }
  }
}
MOTION
Frames:	8
Frame Time:	0.0333333
20.9772 73.5997 124.659 70.8907 -23.7503 -2.56464 168.68 19.7117 174.313 -10.1315 21.9919 3.87145 -135.362 27.4187 164.015 -174.52 68.6009 -139.337 -0.72926 -18.2137 -32.5784 -71.0982 32.5222 -94.1416 21.0274 30.2633 -36.8115 0.420957 0.000575136 0.35866 -2.5229 10.5662 37.7704 -77.3925 -42.7396 103.637 -2.0418 2.88733 33.5891 0.58676 0.000331133 0.0646654 4.70236 4.57934 78.0739 -154.649 78.3255 148.317 4.13181 -12.5623 -1.16369 3.3277 -9.95503 13.5067 -0.192808 1.64519 77.6889 138.292 84.6025 -141.448 -9.7353 -15.9413 1.29814 2.70625 -14.2029 -25.732 
23.4769 75.5941 129.054 68.9279 -23.7979 -5.28777 169.556 19.6922 171.614 -9.1556 21.973 5.14538 -138.458 28.4085 164.795 -175.98 69.0629 -137.216 -0.822673 -17.932 -34.7186 -69.8933 34.5288 -91.2767 25.8014 29.0512 -44.3171 0.420957 0.000575136 0.35866 -2.34166 9.26542 39.3494 -85.2001 -41.4934 98.7551 5.47509 -5.43096 45.7161 0.58676 0.000331133 0.0646654 5.45246 5.69873 79.92 -160.095 77.016 161.668 2.72056 -7.68192 -0.863297 2.42857 -8.12897 11.5139 -3.45365 2.40275 77.1805 128.093 85.4845 -130.782 -13.2383 -19.2025 1.13286 2.27865 -18.1707 -22.7176 
26.3844 78.181 133.431 66.0956 -23.7419 -7.81957 172.208 18.7105 170.109 -8.81219 22.6889 5.69626 -135.69 28.6155 164.522 -177.783 69.2436 -133.537 -0.760247 -17.4468 -35.5328 -68.664 36.7933 -88.5242 27.6646 29.6215 -46.1205 0.420957 0.000575136 0.35866 -2.40066 8.51337 42.3752 -89.5984 -35.8579 94.0619 12.9457 -8.9634 55.8849 0.58676 0.000331133 0.0646654 7.98572 6.93656 82.0358 -162.988 75.459 167.499 5.49922 -4.17469 -0.924834 -1.8918 -1.46124 13.3428 -6.56353 3.19881 76.989 101.911 85.9198 -98.8837 -13.8715 -19.4481 1.09604 1.7648 -22.6197 -26.5386 
30.1055 80.4352 137.936 64.7529 -23.2055 -9.22119 172.947 18.5502 171.37 -8.7321 23.6282 3.58608 -134.543 28.6171 164.983 -175.558 69.4885 -135.167 -0.31207 -15.9189 -34.3444 -72.0933 40.4424 -82.8222 30.7186 33.0005 -46.9228 0.420957 0.000575136 0.35866 -2.42313 8.36777 43.1443 -88.6869 -31.2396 93.5471 11.9856 -7.27474 59.2035 0.58676 0.000331133 0.0646654 8.75485 6.94391 84.4838 -161.48 75.1047 161.258 2.40315 -4.59986 -0.664146 0.872408 -5.19644 10.2615 -10.8588 3.90428 77.0929 81.6817 85.5365 -72.2213 -13.93 -17.116 1.20034 0.630494 -28.4099 -31.0087 
33.9386 83.3164 142.163 62.7411 -23.0135 -11.1142 175.972 17.8595 171.518 -7.78939 24.5651 2.51278 -134.345 29.4386 165.448 -177.24 70.0382 -133.596 -0.0876716 -15.1716 -33.3628 -68.9382 43.3161 -79.9642 26.8848 32.838 -42.525 0.420957 0.000575136 0.35866 -2.40836 8.29568 43.2261 -88.5376 -26.9803 92.959 14.4335 -7.99148 61.595 0.58676 0.000331133 0.0646654 9.13266 6.51342 88.8056 -153.219 78.4438 143.737 -0.14586 -5.5653 -0.515616 2.69952 -8.52916 11.2589 -15.7241 4.67671 77.5403 41.7237 83.4506 -29.5095 -11.2351 -18.9441 1.21938 1.08927 -27.6953 -27.2496 
38.1105 86.1184 146.534 60.6164 -22.5153 -13.0462 -179.882 17.0787 171.294 -6.22911 25.3349 1.81121 -135.052 30.5415 165.544 -179.154 70.8776 -132.792 0.255814 -13.7803 -32.5981 -62.9793 45.9602 -78.0035 22.1556 30.3624 -38.3257 0.420957 0.000575136 0.35866 -2.35957 8.62388 41.5285 -87.6744 -24.7281 92.424 14.9385 -7.77853 63.0607 0.58676 0.000331133 0.0646654 9.42675 5.41445 94.5974 -126.59 83.5477 110.961 -3.81801 -5.87034 -0.25394 5.06161 -12.5319 12.1235 -21.5346 5.27338 77.694 20.274 78.0863 -6.34123 -10.001 -20.1274 1.2548 1.19362 -28.4268 -25.1902 
42.7503 88.6617 150.786 59.007 -23.0307 -14.9585 -177.164 15.6526 171.622 -5.99857 27.1642 0.791701 -134.605 31.5474 165.009 -179.971 71.8817 -131.233 0.599874 -12.3963 -30.6762 -62.272 50.1084 -72.5188 21.0556 32.0191 -35.4574 0.420957 0.000575136 0.35866 -2.19377 8.47945 40.0613 -87.6297 -22.5917 90.428 16.7916 -7.93168 65.357 0.58676 0.000331133 0.0646654 8.39999 4.82189 101.207 -50.4849 83.4802 29.098 -5.75446 -6.71849 -0.212619 7.53757 -16.4916 12.6851 -28.348 6.55053 78.5193 11.9247 71.3547 3.16735 -8.93633 -20.6272 1.307 1.40959 -27.6941 -23.6725 
47.6504 91.5974 155.13 57.9597 -24.2123 -16.084 -174.71 13.8165 172.923 -5.09053 29.0534 -0.398121 -134.699 32.3932 164.974 179.712 72.7114 -131.425 0.867194 -11.1668 -28.4797 -69.0533 52.5317 -61.7721 16.8322 32.902 -31.006 0.420957 0.000575136 0.35866 -1.97641 8.22208 38.2593 -87.1799 -21.7375 89.3706 17.68 -7.86832 66.6767 0.58676 0.000331133 0.0646654 4.58838 3.46002 106.68 -16.3547 73.3108 -11.8607 -6.85021 -4.59773 0.161419 10.6319 -21.2429 12.7141 -36.8606 8.33201 79.3549 7.30278 61.8715 10.3105 -7.71232 -17.2966 1.33479 1.54144 -27.7939 -22.105 
